<svg width="30" height="30" viewBox="0 0 30 30" fill="none" xmlns="http://www.w3.org/2000/svg">
<g filter="url(#filter0_d)">
<rect width="28" height="28" rx="6" fill="#8CD4CB"/>
<rect x="1.5" y="1.5" width="25" height="25" rx="4.5" stroke="#33322E" stroke-width="3"/>
</g>
<path d="M13.9893 6.41272C13.9893 9.6825 13.72 12.9167 13.72 16.1829C13.72 17.1041 13.8332 17.9558 14.1988 18.8013C14.4439 19.3681 14.2586 20.346 14.2586 20.9558" stroke="#F9F3E5" stroke-width="3" stroke-linecap="round" stroke-linejoin="round"/>
<path d="M6.13403 13.9796C8.00236 14.3799 9.80663 14.6523 11.7256 14.4396C14.2086 14.1643 16.7141 13.6141 19.1622 13.1158C19.6525 13.016 20.1627 12.9886 20.4962 12.5945C20.7247 12.3244 20.9697 12.2316 21.314 12.2316" stroke="#F9F3E5" stroke-width="3" stroke-linecap="round" stroke-linejoin="round"/>
<defs>
<filter id="filter0_d" x="0" y="0" width="30" height="30" filterUnits="userSpaceOnUse" color-interpolation-filters="sRGB">
<feFlood flood-opacity="0" result="BackgroundImageFix"/>
<feColorMatrix in="SourceAlpha" type="matrix" values="0 0 0 0 0 0 0 0 0 0 0 0 0 0 0 0 0 0 127 0"/>
<feOffset dx="2" dy="2"/>
<feColorMatrix type="matrix" values="0 0 0 0 0.2 0 0 0 0 0.196078 0 0 0 0 0.180392 0 0 0 1 0"/>
<feBlend mode="normal" in2="BackgroundImageFix" result="effect1_dropShadow"/>
<feBlend mode="normal" in="SourceGraphic" in2="effect1_dropShadow" result="shape"/>
</filter>
</defs>
</svg>
